<mxfile host="app.diagrams.net" modified="2024-03-05T09:25:31.178Z" agent="Mozilla/5.0 (Windows NT 10.0; Win64; x64) AppleWebKit/537.36 (KHTML, like Gecko) Chrome/123.0.0.0 Safari/537.36 Edg/123.0.0.0" version="24.0.1" etag="K1U02MjLYLVmlvjv2dpg" type="github">
  <diagram name="第 1 页" id="-3ujU9wsWK1daRFpCnK-">
    <mxGraphModel>
      <root>
        <mxCell id="0" />
        <mxCell id="1" parent="0" />
      </root>
    </mxGraphModel>
  </diagram>
</mxfile>
